<svg xmlns="http://www.w3.org/2000/svg" width="30.69" height="30.691" viewBox="0 0 30.69 30.691">
  <path id="edit" d="M29.228,1.461a5.007,5.007,0,0,0-7.071,0L2.126,21.493c-.009.009-.015.021-.023.031s-.022.028-.032.042A.54.54,0,0,0,2,21.7c0,.014-.012.027-.016.042s0,.011-.007.017L.014,30.006A.551.551,0,0,0,0,30.119c0,.007,0,.014,0,.021a.553.553,0,0,0,.036.184c0,.014.011.026.017.039a.554.554,0,0,0,.109.164.559.559,0,0,0,.182.121.551.551,0,0,0,.211.042.558.558,0,0,0,.128-.015l8.249-1.964a.4.4,0,0,0,.043-.017.513.513,0,0,0,.055-.022.547.547,0,0,0,.112-.068c.013-.011.027-.018.04-.03s.01-.007.014-.011L29.228,8.532A5.005,5.005,0,0,0,29.228,1.461Zm-.785.785A3.892,3.892,0,0,1,28.8,7.322L23.367,1.886A3.892,3.892,0,0,1,28.443,2.247ZM25.693,10.5,20.194,5l.785-.785,5.5,5.5ZM2.756,27.934a.555.555,0,0,0-.785,0l-.42.42L2.968,22.4l2.456-.273-.316,2.845a.555.555,0,0,0,.006.061.567.567,0,0,0-.006.061c0,.018.012.033.016.051a.564.564,0,0,0,.028.092.541.541,0,0,0,.053.1.526.526,0,0,0,.056.071.557.557,0,0,0,.087.074.564.564,0,0,0,.077.047.578.578,0,0,0,.115.037.582.582,0,0,0,.06.019.545.545,0,0,0,.061,0h0a.553.553,0,0,0,.061,0l2.845-.316-.273,2.456L2.335,29.14l.42-.42A.556.556,0,0,0,2.756,27.934ZM9.727,24.89,22.158,12.459a.555.555,0,0,0-.785-.785L8.942,24.105,6.29,24.4l.294-2.651L19.016,9.318a.555.555,0,0,0-.785-.785L5.8,20.963l-1.768.2L19.408,5.782l5.5,5.5L9.53,26.659ZM27.264,8.925l-5.5-5.5.786-.786,5.5,5.5Z" fill="#fff"/>
</svg>
