<svg xmlns="http://www.w3.org/2000/svg" width="36" height="36" viewBox="0 0 36 36">
  <g id="like-1" transform="translate(0 -1.826)">
    <path id="Path_1" data-name="Path 1" d="M35.941,12.561C35.415,6.34,31.321,1.827,26.2,1.827a9.579,9.579,0,0,0-8.3,5.142A9.248,9.248,0,0,0,9.8,1.826C4.68,1.826.585,6.339.06,12.56a11.882,11.882,0,0,0,.306,4.079,17.79,17.79,0,0,0,4.984,8.945L17.893,37.826,30.65,25.585a17.793,17.793,0,0,0,4.984-8.946A11.908,11.908,0,0,0,35.941,12.561ZM34.286,16.3a16.269,16.269,0,0,1-4.563,8.18L17.9,35.823,6.281,24.481A16.28,16.28,0,0,1,1.714,16.3a10.382,10.382,0,0,1-.288-3.5l.01-.075C1.887,7.272,5.4,3.315,9.8,3.315c3.245,0,6.1,2.145,7.457,5.6l.638,1.626.638-1.626a8.39,8.39,0,0,1,7.664-5.6c4.4,0,7.916,3.956,8.375,9.477A10.37,10.37,0,0,1,34.286,16.3Z" transform="translate(0)" fill="#fff"/>
  </g>
</svg>
