<svg xmlns="http://www.w3.org/2000/svg" width="29.099" height="35.767" viewBox="0 0 29.099 35.767">
  <g id="trash" transform="translate(-5.5)">
    <path id="Path_9" data-name="Path 9" d="M33.993,3.637H25.479A4.818,4.818,0,0,0,24.38.781,2.564,2.564,0,0,0,22.474,0H16.412a2.564,2.564,0,0,0-1.906.781,4.818,4.818,0,0,0-1.1,2.856h-7.3a.606.606,0,1,0,0,1.212H33.993a.606.606,0,0,0,0-1.212ZM15.377,1.625a1.374,1.374,0,0,1,1.035-.413h6.062a1.374,1.374,0,0,1,1.035.413,3.568,3.568,0,0,1,.752,2.012H14.625A3.571,3.571,0,0,1,15.377,1.625Z" fill="#fff"/>
    <path id="Path_10" data-name="Path 10" d="M9.735,36.687A2.941,2.941,0,0,0,12.71,39.7H29.849A2.938,2.938,0,0,0,32.824,36.7L33.935,10H8.624ZM32.671,11.212,31.612,36.661a1.759,1.759,0,0,1-1.763,1.831H12.71a1.781,1.781,0,0,1-1.764-1.844L9.888,11.212Z" transform="translate(-1.23 -3.938)" fill="#fff"/>
    <path id="Path_11" data-name="Path 11" d="M17.106,53.212H31.656a.606.606,0,1,0,0-1.212H17.106a.606.606,0,1,0,0,1.212Z" transform="translate(-4.332 -20.476)" fill="#fff"/>
    <path id="Path_12" data-name="Path 12" d="M17.106,48.212H31.656a.606.606,0,1,0,0-1.212H17.106a.606.606,0,1,0,0,1.212Z" transform="translate(-4.332 -18.507)" fill="#fff"/>
    <path id="Path_13" data-name="Path 13" d="M17.106,43.212H31.656a.606.606,0,1,0,0-1.212H17.106a.606.606,0,1,0,0,1.212Z" transform="translate(-4.332 -16.539)" fill="#fff"/>
  </g>
</svg>
