<svg xmlns="http://www.w3.org/2000/svg" width="45" height="45" viewBox="0 0 45 45">
  <path id="user-3" d="M45,22.5A22.5,22.5,0,1,0,7.3,39.075l-.021.019.73.615c.047.04.1.073.146.112.388.322.79.627,1.2.922.133.1.265.191.4.285q.655.452,1.343.857c.1.059.2.116.3.173.5.286,1.014.555,1.538.8l.116.052A22.3,22.3,0,0,0,18.5,44.635l.151.027c.592.1,1.191.184,1.8.239l.222.017c.6.05,1.214.082,1.833.082s1.217-.032,1.818-.08l.228-.017q.9-.082,1.782-.235l.153-.028a22.3,22.3,0,0,0,5.365-1.681c.062-.029.125-.056.187-.085q.757-.356,1.482-.766.18-.1.359-.207c.44-.259.873-.53,1.294-.818.151-.1.3-.212.449-.32.359-.259.712-.525,1.055-.8.076-.061.158-.115.232-.178l.749-.625-.022-.019A22.442,22.442,0,0,0,45,22.5Zm-43.364,0a20.864,20.864,0,1,1,34.7,15.6,6.131,6.131,0,0,0-.731-.439l-6.928-3.463a1.814,1.814,0,0,1-1.008-1.631V30.144c.16-.2.33-.422.5-.668a16.673,16.673,0,0,0,2.14-4.192,2.969,2.969,0,0,0,1.706-2.691v-2.9a2.977,2.977,0,0,0-.726-1.938V13.936a6.6,6.6,0,0,0-1.541-4.8C28.247,7.417,25.806,6.545,22.5,6.545s-5.747.871-7.255,2.592a6.6,6.6,0,0,0-1.541,4.8v3.818a2.981,2.981,0,0,0-.726,1.938v2.9a2.976,2.976,0,0,0,1.1,2.308,15.374,15.374,0,0,0,2.531,5.227V32.5a1.825,1.825,0,0,1-.951,1.6L9.186,37.627a5.913,5.913,0,0,0-.615.389A20.814,20.814,0,0,1,1.636,22.5Zm33.1,16.881q-.43.312-.873.6c-.136.088-.271.177-.409.263-.386.239-.779.466-1.18.679-.088.047-.178.091-.267.137a20.848,20.848,0,0,1-2.854,1.208l-.1.035q-.769.255-1.558.452h0c-.53.131-1.067.24-1.607.329l-.044.008c-.508.083-1.02.142-1.534.187-.091.008-.182.014-.273.02-.508.038-1.019.063-1.532.063s-1.036-.025-1.55-.064c-.089-.007-.178-.012-.267-.02-.519-.046-1.035-.107-1.546-.191l-.069-.012a20.786,20.786,0,0,1-3.183-.794l-.1-.033q-.772-.263-1.523-.583l-.011,0c-.473-.2-.937-.43-1.395-.668-.06-.031-.12-.061-.179-.092-.418-.223-.827-.465-1.231-.717q-.179-.113-.356-.228c-.371-.243-.738-.5-1.095-.763l-.109-.085.079-.044,6.469-3.529a3.46,3.46,0,0,0,1.8-3.039V29.549l-.188-.227A13.661,13.661,0,0,1,15.6,24.235l-.074-.324-.279-.181a1.356,1.356,0,0,1-.629-1.139v-2.9a1.336,1.336,0,0,1,.456-1l.27-.244V13.889l-.007-.107a4.928,4.928,0,0,1,1.142-3.567c1.183-1.348,3.211-2.033,6.024-2.033s4.824.679,6.01,2.018a5.01,5.01,0,0,1,1.156,3.584l-.007,4.664.27.244a1.338,1.338,0,0,1,.456,1v2.9a1.367,1.367,0,0,1-.966,1.289l-.407.125-.131.405a15.137,15.137,0,0,1-2.042,4.117c-.214.3-.423.571-.6.776l-.2.232v3.026a3.44,3.44,0,0,0,1.913,3.094l6.928,3.463.131.068C34.918,39.256,34.828,39.317,34.739,39.381Z" fill="#fff"/>
</svg>
